<?xml version="1.0" encoding="UTF-8" standalone="no"?>
<!-- Jackestar 2024 -->
<svg
   width="384"
   height="128.07227"
   viewBox="0 0 384 128.07227"
   version="1.1"
   id="svg1"
   xmlns="http://www.w3.org/2000/svg"
   xmlns:svg="http://www.w3.org/2000/svg">
  <defs
     id="defs1" />
  <g
     id="layer1"
     transform="translate(-64,-191.92773)">
    <path
       id="rect8"
       style="fill-opacity:0.995913;stroke-width:18.9968"
       d="m 64,191.92773 v 128 L 384,320 448,255.92773 384,192 Z M 126.8418,200 c 6.24546,-0.1827 13.10188,32.23198 18.25781,35.90234 5.15592,3.67036 36.69012,-1.41246 38.78711,4.70899 2.09701,6.12146 -25.42264,22.92187 -27.18555,29.15625 -1.76291,6.23437 12.62912,35.85633 7.67969,39.82226 -4.94944,3.96597 -28.81509,-18.0655 -35.06055,-17.88281 -6.24546,0.18269 -28.88312,23.57271 -34.03906,19.90235 -5.155923,-3.67037 7.61262,-34.08558 5.51563,-40.20704 -2.097009,-6.12145 -30.481661,-21.28712 -28.718755,-27.52148 1.762905,-6.23436 33.523215,-3.00083 38.472655,-6.9668 4.94945,-3.96595 10.04555,-36.73138 16.29102,-36.91406 z" />
  </g>
</svg>
