<?xml version="1.0" encoding="UTF-8" standalone="no"?>
<!-- Jackestar 2024 -->
<svg
   width="512"
   height="512"
   viewBox="0 0 256 384"
   version="1.1"
   id="svg1"
   xmlns="http://www.w3.org/2000/svg"
   xmlns:svg="http://www.w3.org/2000/svg">
  <defs
     id="defs1" />
  <g
     id="layer1"
     transform="translate(-128,-64)">
    <rect
       style="fill:#000000;fill-opacity:0.995913;stroke-width:18.8976"
       id="rect6"
       width="256"
       height="128"
       x="128"
       y="320"
       ry="64"
       rx="39.682278" />
    <path
       style="fill:#000000;fill-opacity:0.995913;stroke-width:18.8976"
       id="path6"
       d="m 177.56722,268.03111 c -11.44325,-8.37267 19.60951,-73.79412 15.27307,-87.29393 -4.33644,-13.4998 -67.67884,-48.59938 -63.25212,-62.06985 4.42673,-13.47047 76.24206,-4.15388 87.7411,-12.44975 11.49904,-8.295877 25.30685,-79.384445 39.48596,-79.33698 14.17911,0.04746 27.51066,71.226882 38.95391,79.59956 11.44324,8.37267 83.31933,-0.4629 87.65578,13.0369 4.33645,13.49981 -59.23953,48.17452 -63.66626,61.64499 -4.42673,13.47047 26.18734,79.09835 14.6883,87.39422 -11.49905,8.29588 -64.12271,-41.45339 -78.30182,-41.50086 -14.17912,-0.0475 -67.13468,49.34837 -78.57792,40.9757 z"
       transform="matrix(1.0068028,0,0,0.98924695,-2.2467288,37.408472)" />
  </g>
</svg>
